<svg width="24" height="24" viewBox="0 0 24 24" fill="none" xmlns="http://www.w3.org/2000/svg">
<path d="M9.50008 10.5001C9.22396 10.7762 8.77623 10.7761 8.50008 10.5001C8.22393 10.2239 8.22393 9.77622 8.50008 9.50008L11.293 6.70711C11.6836 6.31666 12.3166 6.31661 12.7071 6.70711L15.5001 9.50008C15.7761 9.77622 15.7762 10.224 15.5001 10.5001C15.224 10.7762 14.7762 10.7761 14.5001 10.5001L12.0001 8.00008L9.50008 10.5001ZM9.50008 16.5001C9.22396 16.7762 8.77622 16.7761 8.50008 16.5001C8.22393 16.2239 8.22393 15.7762 8.50008 15.5001L11.293 12.7071C11.6836 12.3167 12.3166 12.3166 12.7071 12.7071L15.5001 15.5001C15.7761 15.7762 15.7762 16.224 15.5001 16.5001C15.224 16.7762 14.7762 16.7761 14.5001 16.5001L12.0001 14.0001L9.50008 16.5001Z" fill="#41F6D7"/>
</svg>
